<svg width="16" height="17" viewBox="0 0 16 17" fill="none" xmlns="http://www.w3.org/2000/svg">
<g clip-path="url(#clip0_161_243)">
<path d="M1.5 8.5C1.5 6.7761 2.18482 5.1228 3.40381 3.90381C4.6228 2.68482 6.2761 2 8 2C9.72391 2 11.3772 2.68482 12.5962 3.90381C13.8152 5.1228 14.5 6.7761 14.5 8.5C14.5 8.69892 14.579 8.88968 14.7197 9.03033C14.8603 9.17099 15.0511 9.25 15.25 9.25C15.4489 9.25 15.6397 9.17099 15.7803 9.03033C15.921 8.88968 16 8.69892 16 8.5C16 6.91775 15.5308 5.37103 14.6518 4.05544C13.7727 2.73985 12.5233 1.71447 11.0615 1.10897C9.59966 0.503466 7.99113 0.34504 6.43928 0.653721C4.88743 0.962403 3.46197 1.72433 2.34315 2.84315C1.22433 3.96197 0.462403 5.38743 0.153721 6.93928C-0.15496 8.49113 0.00346625 10.0997 0.608967 11.5615C1.21447 13.0233 2.23985 14.2727 3.55544 15.1518C4.87103 16.0308 6.41775 16.5 8 16.5C8.19892 16.5 8.38968 16.421 8.53033 16.2803C8.67099 16.1397 8.75 15.9489 8.75 15.75C8.75 15.5511 8.67099 15.3603 8.53033 15.2197C8.38968 15.079 8.19892 15 8 15C6.2761 15 4.6228 14.3152 3.40381 13.0962C2.18482 11.8772 1.5 10.2239 1.5 8.5Z" fill="#00CB5C"/>
<path d="M8.67702 12.927L11.573 15.823C11.608 15.8581 11.6526 15.882 11.7011 15.8916C11.7497 15.9013 11.8 15.8964 11.8458 15.8774C11.8915 15.8585 11.9306 15.8263 11.958 15.7851C11.9855 15.744 12.0001 15.6955 12 15.646V13.5H15.25C15.4489 13.5 15.6397 13.421 15.7804 13.2804C15.921 13.1397 16 12.9489 16 12.75C16 12.5511 15.921 12.3603 15.7804 12.2197C15.6397 12.079 15.4489 12 15.25 12H12V9.85402C12.0001 9.80451 11.9855 9.75609 11.958 9.71489C11.9306 9.6737 11.8915 9.64159 11.8458 9.62263C11.8 9.60367 11.7497 9.59872 11.7011 9.6084C11.6526 9.61809 11.608 9.64197 11.573 9.67702L8.67702 12.573C8.65374 12.5962 8.63527 12.6238 8.62266 12.6542C8.61006 12.6846 8.60357 12.7171 8.60357 12.75C8.60357 12.7829 8.61006 12.8155 8.62266 12.8458C8.63527 12.8762 8.65374 12.9038 8.67702 12.927ZM11.28 7.28002C11.3496 7.21042 11.4048 7.12779 11.4425 7.03686C11.4802 6.94592 11.4996 6.84845 11.4996 6.75002C11.4996 6.65159 11.4802 6.55413 11.4425 6.46319C11.4048 6.37225 11.3496 6.28962 11.28 6.22002C11.2104 6.15042 11.1278 6.09521 11.0369 6.05754C10.9459 6.01988 10.8485 6.00049 10.75 6.00049C10.6516 6.00049 10.5541 6.01988 10.4632 6.05754C10.3723 6.09521 10.2896 6.15042 10.22 6.22002L7.25002 9.18902L5.78002 7.72002C5.71042 7.65042 5.62779 7.59521 5.53686 7.55754C5.44592 7.51988 5.34845 7.50049 5.25002 7.50049C5.15159 7.50049 5.05413 7.51988 4.96319 7.55754C4.87225 7.59521 4.78962 7.65042 4.72002 7.72002C4.65042 7.78962 4.59521 7.87225 4.55754 7.96319C4.51988 8.05413 4.50049 8.15159 4.50049 8.25002C4.50049 8.34845 4.51988 8.44592 4.55754 8.53686C4.59521 8.62779 4.65042 8.71042 4.72002 8.78002L6.72002 10.78C6.86065 10.9205 7.05127 10.9994 7.25002 10.9994C7.44877 10.9994 7.6394 10.9205 7.78002 10.78L11.28 7.28002Z" fill="#00CB5C"/>
</g>
<defs>
<clipPath id="clip0_161_243">
<rect width="16" height="16" fill="white" transform="translate(0 0.5)"/>
</clipPath>
</defs>
</svg>
