<svg width="24" height="24" viewBox="0 0 24 24" fill="none" xmlns="http://www.w3.org/2000/svg">
<g clip-path="url(#clip0_27_271)">
<path d="M2.25001 12C2.25001 9.41414 3.27723 6.93419 5.10571 5.10571C6.93419 3.27723 9.41414 2.25001 12 2.25001C14.5859 2.25001 17.0658 3.27723 18.8943 5.10571C20.7228 6.93419 21.75 9.41414 21.75 12C21.75 12.2984 21.8685 12.5845 22.0795 12.7955C22.2905 13.0065 22.5766 13.125 22.875 13.125C23.1734 13.125 23.4595 13.0065 23.6705 12.7955C23.8815 12.5845 24 12.2984 24 12C24 9.62663 23.2962 7.30655 21.9776 5.33316C20.6591 3.35977 18.7849 1.8217 16.5922 0.913451C14.3995 0.00519937 11.9867 -0.232441 9.65892 0.230582C7.33115 0.693605 5.19295 1.83649 3.51472 3.51472C1.83649 5.19295 0.693605 7.33115 0.230582 9.65892C-0.232441 11.9867 0.00519937 14.3995 0.913451 16.5922C1.8217 18.7849 3.35977 20.6591 5.33316 21.9776C7.30655 23.2962 9.62663 24 12 24C12.2984 24 12.5845 23.8815 12.7955 23.6705C13.0065 23.4595 13.125 23.1734 13.125 22.875C13.125 22.5766 13.0065 22.2905 12.7955 22.0795C12.5845 21.8685 12.2984 21.75 12 21.75C9.41414 21.75 6.93419 20.7228 5.10571 18.8943C3.27723 17.0658 2.25001 14.5859 2.25001 12Z" fill="#F77F00"/>
<path d="M13.0155 18.6408L17.3595 22.9848C17.412 23.0374 17.4789 23.0732 17.5517 23.0877C17.6245 23.1022 17.7 23.0948 17.7686 23.0664C17.8372 23.0379 17.8958 22.9898 17.937 22.928C17.9782 22.8662 18.0002 22.7935 18 22.7193V19.5003H22.875C23.1734 19.5003 23.4595 19.3817 23.6705 19.1708C23.8815 18.9598 24 18.6736 24 18.3753C24 18.0769 23.8815 17.7908 23.6705 17.5798C23.4595 17.3688 23.1734 17.2503 22.875 17.2503H18V14.0313C18.0002 13.957 17.9782 13.8844 17.937 13.8226C17.8958 13.7608 17.8372 13.7126 17.7686 13.6842C17.7 13.6558 17.6245 13.6483 17.5517 13.6628C17.4789 13.6774 17.412 13.7132 17.3595 13.7658L13.0155 18.1098C12.9806 18.1446 12.9529 18.186 12.934 18.2316C12.9151 18.2771 12.9054 18.326 12.9054 18.3753C12.9054 18.4246 12.9151 18.4734 12.934 18.519C12.9529 18.5646 12.9806 18.6059 13.0155 18.6408ZM16.92 10.1703C17.0244 10.0659 17.1072 9.94193 17.1637 9.80553C17.2203 9.66912 17.2493 9.52292 17.2493 9.37528C17.2493 9.22763 17.2203 9.08143 17.1637 8.94503C17.1072 8.80862 17.0244 8.68468 16.92 8.58028C16.8156 8.47588 16.6917 8.39306 16.5553 8.33656C16.4189 8.28006 16.2727 8.25098 16.125 8.25098C15.9774 8.25098 15.8312 8.28006 15.6948 8.33656C15.5584 8.39306 15.4344 8.47588 15.33 8.58028L10.875 13.0338L8.67003 10.8303C8.56563 10.7259 8.44169 10.6431 8.30528 10.5866C8.16888 10.5301 8.02268 10.501 7.87503 10.501C7.72739 10.501 7.58119 10.5301 7.44478 10.5866C7.30838 10.6431 7.18443 10.7259 7.08003 10.8303C6.97563 10.9347 6.89282 11.0586 6.83631 11.195C6.77981 11.3314 6.75073 11.4776 6.75073 11.6253C6.75073 11.7729 6.77981 11.9191 6.83631 12.0555C6.89282 12.1919 6.97563 12.3159 7.08003 12.4203L10.08 15.4203C10.291 15.631 10.5769 15.7493 10.875 15.7493C11.1732 15.7493 11.4591 15.631 11.67 15.4203L16.92 10.1703Z" fill="#F77F00"/>
</g>
<defs>
<clipPath id="clip0_27_271">
<rect width="24" height="24" fill="white"/>
</clipPath>
</defs>
</svg>
