<svg width="18" height="18" viewBox="0 0 18 18" fill="none" xmlns="http://www.w3.org/2000/svg">
<path d="M8.99994 12.2474C7.20744 12.2474 5.75244 10.7924 5.75244 8.99994C5.75244 7.20744 7.20744 5.75244 8.99994 5.75244C10.7924 5.75244 12.2474 7.20744 12.2474 8.99994C12.2474 10.7924 10.7924 12.2474 8.99994 12.2474ZM8.99994 6.87744C7.82994 6.87744 6.87744 7.82994 6.87744 8.99994C6.87744 10.1699 7.82994 11.1224 8.99994 11.1224C10.1699 11.1224 11.1224 10.1699 11.1224 8.99994C11.1224 7.82994 10.1699 6.87744 8.99994 6.87744Z" fill="white"/>
<path d="M9.00006 15.7649C6.18006 15.7649 3.51756 14.1149 1.68756 11.2499C0.892559 10.0124 0.892559 7.99486 1.68756 6.74986C3.52506 3.88486 6.18756 2.23486 9.00006 2.23486C11.8126 2.23486 14.4751 3.88486 16.3051 6.74986C17.1001 7.98736 17.1001 10.0049 16.3051 11.2499C14.4751 14.1149 11.8126 15.7649 9.00006 15.7649ZM9.00006 3.35986C6.57756 3.35986 4.26006 4.81486 2.64006 7.35736C2.07756 8.23486 2.07756 9.76486 2.64006 10.6424C4.26006 13.1849 6.57756 14.6399 9.00006 14.6399C11.4226 14.6399 13.7401 13.1849 15.3601 10.6424C15.9226 9.76486 15.9226 8.23486 15.3601 7.35736C13.7401 4.81486 11.4226 3.35986 9.00006 3.35986Z" fill="white"/>
</svg>
