<svg width="272" height="107" viewBox="0 0 272 107" fill="none" xmlns="http://www.w3.org/2000/svg">
<mask id="mask0_51_470" style="mask-type:luminance" maskUnits="userSpaceOnUse" x="0" y="0" width="108" height="107">
<path d="M0.5 0.974121H107.167V106.86H0.5V0.974121Z" fill="white"/>
</mask>
<g mask="url(#mask0_51_470)">
<path d="M105.339 51.5211L93.5313 39.7138L90.1042 46.5732L97.6198 54.094L66.9271 84.7867L87.3906 43.8596L90.8177 37.0003L106.021 6.59923C106.724 5.19298 106.443 3.50548 105.339 2.39611C104.234 1.29194 102.547 1.00548 101.135 1.71382L74.1615 15.1982L79.5886 20.6253L94.625 13.1044L87.1094 28.1409L85.3906 31.5732L82.6823 28.8649L78.875 25.0524L76.1615 22.344L68.0209 14.2034L56.2188 2.39611C54.7969 0.974235 52.4948 0.974235 51.0729 2.39611L36.5521 16.9169L31.1302 22.344L28.4167 25.0524L24.6094 28.8649L21.8959 31.5732L20.1823 28.1409L12.6563 13.1044L27.6979 20.6253L33.1198 15.2034L6.14585 1.71382C4.74481 1.01069 3.0521 1.28673 1.94272 2.39611C0.838558 3.50028 0.562517 5.19298 1.26043 6.59923L16.4636 37.0003L19.8959 43.8596L40.3594 84.7867L32.2188 76.6513L9.66148 54.094L17.1823 46.5732L13.7552 39.7138L1.94793 51.5211C0.526058 52.943 0.526058 55.2451 1.94793 56.6669L51.0729 105.792C51.2656 105.985 51.474 106.146 51.6979 106.287C51.75 106.318 51.8021 106.339 51.849 106.365C52.0625 106.49 52.2865 106.584 52.5261 106.662C52.6042 106.688 52.6771 106.714 52.7552 106.729C53.0417 106.802 53.3386 106.86 53.6459 106.86C53.9531 106.86 54.25 106.802 54.5365 106.729C54.6146 106.714 54.6875 106.688 54.7656 106.662C55 106.584 55.2292 106.49 55.4427 106.365C55.4948 106.339 55.5469 106.318 55.5938 106.287C55.8125 106.146 56.0261 105.985 56.224 105.792L64.7813 97.2346L105.344 56.6669C106.76 55.2451 106.76 52.9378 105.339 51.5211ZM53.6459 95.0836L27.0365 41.8701L25.3229 38.4378L53.6459 10.1149L81.9688 38.4378L53.6459 95.0836Z" fill="#F77F00"/>
</g>
<path d="M162.424 36.536H138.424V47.7443H156.278V61.411H138.424V86.2651H123.215V22.8901H162.424V36.536Z" fill="white"/>
<path d="M215.553 35.9526L195.762 88.5151C193.621 93.7078 190.21 97.8328 185.533 100.89C180.85 103.942 175.746 105.411 170.22 105.286V91.6193C172.23 91.687 174.246 91.2703 176.262 90.3693C179.121 89.062 181.267 87.0151 182.699 84.2235L185.428 76.7026L168.262 35.9526H183.283L192.345 57.8901L200.449 35.9526H215.553Z" fill="white"/>
<path d="M246.457 36.244C253.608 35.6606 259.524 37.5148 264.207 41.8065C269.217 46.4211 271.727 52.8846 271.727 61.2023V86.2648H259.04V61.494H258.957V61.3065C258.957 57.8638 257.748 54.9419 255.332 52.5356C252.925 50.1346 250.003 48.9315 246.561 48.9315C243.045 49.0565 240.123 50.2856 237.79 52.619C235.316 55.0929 234.144 58.0252 234.269 61.4106V61.494H234.186V86.2648H220.54V35.8481H234.186V42.3898C237.238 38.7544 241.332 36.7023 246.457 36.244Z" fill="white"/>
</svg>
